<?xml version="1.0" encoding="UTF-8" standalone="no"?>
<!DOCTYPE svg PUBLIC "-//W3C//DTD SVG 1.1//EN" "http://www.w3.org/Graphics/SVG/1.1/DTD/svg11.dtd">
<svg width="100%" height="100%" viewBox="0 0 26 14" version="1.1" xmlns="http://www.w3.org/2000/svg" xmlns:xlink="http://www.w3.org/1999/xlink" xml:space="preserve" xmlns:serif="http://www.serif.com/" style="fill-rule:evenodd;clip-rule:evenodd;stroke-linejoin:round;stroke-miterlimit:2;">
    <path d="M21.36,0.171L25.75,0.171L18.952,10.666C18.934,10.694 18.916,10.722 18.898,10.749L18.799,10.902L18.795,10.902C17.561,12.671 15.51,13.829 13.189,13.829C11.26,13.829 9.518,13.029 8.276,11.743L10.496,8.296C10.956,9.397 12.043,10.171 13.311,10.171C14.464,10.171 15.467,9.531 15.985,8.587L19.137,3.642L19.147,3.66L21.36,0.171ZM10.7,5.546C11.234,4.663 12.204,4.073 13.311,4.073C14.507,4.073 15.542,4.762 16.041,5.764L18.186,2.345C16.94,1.007 15.162,0.171 13.189,0.171C10.868,0.171 8.817,1.329 7.583,3.098L7.579,3.097L7.519,3.192C7.455,3.287 7.393,3.384 7.334,3.483L0.75,13.821L5.262,13.821L7.326,10.503C7.329,10.509 7.332,10.515 7.336,10.52L10.7,5.546ZM13.311,8.593C12.499,8.593 11.84,7.934 11.84,7.122C11.84,6.309 12.499,5.651 13.311,5.651C14.123,5.651 14.782,6.309 14.782,7.122C14.782,7.934 14.123,8.593 13.311,8.593Z" style="fill:rgb(104,4,204);"/>
</svg>
